/* XPM */
static char *_67d7673c38441b69f98b10e6075067dfYz1jQJBUUBCvvDH[] = {
/* columns rows colors chars-per-pixel */
"40 32 236 2 ",
"   c None",
".  c #070507",
"X  c #121F04",
"o  c #0E0C14",
"O  c #120D14",
"+  c #14121A",
"@  c #1A151C",
"#  c #18171C",
"$  c #340000",
"%  c #2E1213",
"&  c #26191B",
"*  c #162702",
"=  c #1C3106",
"-  c #243409",
";  c #2D2D14",
":  c #1D1A23",
">  c #1A1923",
",  c #211E27",
"<  c #321E22",
"1  c #25232C",
"2  c #2B252D",
"3  c #2F2E2A",
"4  c #2C3921",
"5  c #323525",
"6  c #2C2B33",
"7  c #252A32",
"8  c #332E35",
"9  c #392E35",
"0  c #35333B",
"q  c #383438",
"w  c #3B2427",
"e  c #4C0908",
"r  c #530000",
"t  c #580604",
"y  c #4C1919",
"u  c #4E160C",
"i  c #6C0301",
"p  c #690D09",
"a  c #7A0702",
"s  c #6D1300",
"d  c #7E1300",
"f  c #6C1515",
"g  c #781916",
"h  c #473B05",
"j  c #6F2503",
"k  c #4D2425",
"l  c #552A2A",
"z  c #453639",
"x  c #553B3B",
"c  c #583637",
"v  c #422B30",
"b  c #612725",
"n  c #792727",
"m  c #6C332F",
"M  c #74302B",
"N  c #793029",
"B  c #653737",
"V  c #7D363B",
"C  c #274705",
"Z  c #285807",
"A  c #3B5A06",
"S  c #2C4819",
"D  c #305C19",
"F  c #304910",
"G  c #2C690A",
"H  c #3C6309",
"J  c #336B09",
"K  c #396B05",
"L  c #3C7305",
"P  c #387307",
"I  c #366511",
"U  c #374A2C",
"Y  c #4C5C08",
"T  c #555907",
"R  c #4C4B05",
"E  c #6B4705",
"W  c #794904",
"Q  c #745305",
"!  c #745A09",
"~  c #615607",
"^  c #466807",
"/  c #4B7906",
"(  c #567306",
")  c #6C6D04",
"_  c #54403E",
"`  c #70433C",
"'  c #3C3B43",
"]  c #3A3740",
"[  c #473C42",
"{  c #7A3C40",
"}  c #46444B",
"|  c #4A454B",
" . c #494946",
".. c #5C4343",
"X. c #57464A",
"o. c #4F5647",
"O. c #52564B",
"+. c #4C4B53",
"@. c #554D53",
"#. c #575458",
"$. c #644648",
"%. c #7C4B4B",
"&. c #734547",
"*. c #625A5A",
"=. c #6A5B5C",
"-. c #685555",
";. c #775A5B",
":. c #6A5050",
">. c #5F6758",
",. c #71615F",
"<. c #645C62",
"1. c #735D60",
"2. c #686567",
"3. c #77686A",
"4. c #756E71",
"5. c #797779",
"6. c #6B6C74",
"7. c #8A0101",
"8. c #860606",
"9. c #930303",
"0. c #9B0101",
"q. c #9D0907",
"w. c #891600",
"e. c #9B1702",
"r. c #821213",
"t. c #9D1719",
"y. c #A40202",
"u. c #AA0503",
"i. c #A90C00",
"p. c #B50800",
"a. c #A91B1A",
"s. c #A81717",
"d. c #AC140B",
"f. c #8E3303",
"g. c #973B03",
"h. c #852212",
"j. c #A72703",
"k. c #B62801",
"l. c #A83904",
"z. c #BD3401",
"x. c #B73802",
"c. c #B62919",
"v. c #B32C18",
"b. c #981F22",
"n. c #8B292C",
"m. c #962527",
"M. c #942D31",
"N. c #8A3438",
"B. c #983637",
"V. c #842D31",
"C. c #A32728",
"Z. c #B83B37",
"A. c #B02322",
"S. c #CB0D00",
"D. c #C30B00",
"F. c #C91700",
"G. c #D41400",
"H. c #D31800",
"J. c #C82B00",
"K. c #D42601",
"L. c #D82A05",
"P. c #C83502",
"I. c #D93100",
"U. c #D23217",
"Y. c #E32500",
"T. c #E72B07",
"R. c #E43903",
"E. c #E43311",
"W. c #974304",
"Q. c #804806",
"!. c #A44206",
"~. c #A94619",
"^. c #B9471E",
"/. c #B24D0E",
"(. c #BC4722",
"). c #B94630",
"_. c #B24C35",
"`. c #D1491C",
"'. c #D05010",
"]. c #EB4400",
"[. c #EC4B00",
"{. c #E64500",
"}. c #E55418",
"|. c #E96017",
" X c #DA4428",
".X c #D74B32",
"XX c #D05032",
"oX c #EB5637",
"OX c #E84727",
"+X c #DD7333",
"@X c #894749",
"#X c #9B4545",
"$X c #8A524D",
"%X c #845853",
"&X c #985954",
"*X c #A44946",
"=X c #A7544E",
"-X c #AF5C51",
";X c #B6514A",
":X c #976658",
">X c #80655D",
",X c #B26D58",
"<X c #9C716C",
"1X c #887978",
"2X c #947A79",
"3X c #8E6B68",
"4X c #B57768",
"5X c #D45B47",
"6X c #ED5D41",
"7X c #CD7155",
"8X c #E17E49",
"9X c #EE7E63",
"0X c #498A06",
"qX c #509405",
"wX c #518604",
"eX c #7F837B",
"rX c #98807F",
"tX c #807F80",
"yX c #858384",
"uX c #8C888A",
"iX c #998887",
"pX c #989496",
"aX c #8F949B",
"sX c #B5B5BA",
"dX c #AEADB1",
"fX c #A18F8E",
"gX c #E99E89",
"hX c #F3A893",
"jX c #F0B6A8",
"kX c #C7A39F",
"lX c #BDBFC4",
"zX c #CFCFD2",
"xX c #F8D8CC",
"cX c #EAE8E9",
"vX c #FFFCFA",
"bX c #F8F0EC",
/* pixels */
"                                                                                ",
"                                  5.5 . . 8 yX                                  ",
"                                uX*.5 * * 5 2.pX                                ",
"                      4.#. . .q 9 5 F Z C S 4 0 _  . .#.4.uX                    ",
"                eX>.o.U - * * * X = J L H Z = X * * * - U o.>.rX                ",
"            tXO.U S D I K L L K Z Z P / K G Z Z J L K H I D S U O.yX            ",
"          pX .; - C Z P 0XqXqX0XP J P P K J J P 0XqXqX0XP Z C = ;  .pX          ",
"        uXo.4 - R R A ^ 0X0XwX/ ^ H J G G J H ^ / wXqX0XK Y R F - U O.uX        ",
"        *.; ; h j Q Y ^ ( ) ) ! Q ~ A G G ^ ~ Q ! ) ) ( ^ Y E E h ; ; *.        ",
"        _ u j g.W.Q.T ^ Q W.x.x.z.W.T H A T W.z.x.x.W.Q ^ T W g.f.j u x         ",
"      1Xb s j.x.l.W.Q Q g.J.K.Y.Y.z.W T T W P.Y.Y.L.P.!.! ! g.l.k.e.s l 1X      ",
"    5.c h.j.P.{./.!.l.x.K.L.Y.L.Y.J.g.W W g.J.Y.T.E.U.`._.~.l.j.J.F.e.g x yX    ",
"    *.u j.P.{.'./././.^.`. XoXoXoXOX^./.!.x.L.E. XXXXX)._.).~.v.K.H.F.e.y *.    ",
"    _ p k.{.{.|.+X7X:X,.<XkXjXjXjXgX7X+XU.L.T..X4X<X%X$.B &._..XL.G.F.q.t $.    ",
"    B s z.].[.|.8XrX$XeXpXsXcXvXbXxXjX9XE.E.OX5X<X6.#.' 6 x -X6XE.G.G.i.t B     ",
"  iXM d P.].[.|.7XrX_ _ aXzXbXvXvXbXxXhXOXE.5X4X1.+.0 1 + 3 &X5XU.G.G.d.i m iX  ",
"  2XM w.P.{.[.}.,X>X] ] 6.dXzXcXcXxXxXhX6X X-X<X@.] 1 + . & $X-XU.S.G.d.a M iX  ",
"  2XN w.P.{.{.`.-X=.9 7 +.6.aXlXsXlXgX9X6X5X&X2.[ 6 > O . , :.=XU.G.S.p.a M 2X  ",
"  2XM w.P.I.I.`.:X<.6 > 7 [ <.5.tX2X4X7X5X-X-.[ ] 1 , O . @ @.$Xc.G.G.p.a M 2X  ",
"  2XM w.k.I.I.`.%X#.7 > ] ' ] ] | -.3X<X<X>X[ ] 1 1 1 , . # | $Xc.G.S.i.a M iX  ",
"  iXm s k.K.K.v.%.+.7 : ' [ ] ] 2 ] @.<.<.@.9 1 1 6 [ 8 O # | %.c.S.S.y.i m fX  ",
"    c i i.F.F.v.%.+.: 1 +.6.+.' 2 , 8 0 0 6 , 1 0 +.<.@.@ @  .%.a.S.D.y.t c     ",
"    ..e 9.D.D.A.@X+.> , <.5.2.{ 0 1 > > @ > > 6 ..=.3.#.@ +  .%.a.D.p.9.e ..    ",
"    -.y 8.u.p.a.@X[ @ > [ 3.&X$X[ 1 > o o O , v @X&X;. .@ @ [ @Xs.p.u.8.y =.    ",
"      x f 7.y.s.@X[ , o 9 $.=X=X{ [ , + O > 9 { *X;X%.] + @ ..@Xs.0.7.f ..yX    ",
"      1Xl r 7.s.#X{ & o > z @X5X*X{ z 7 7 9 { *X;X#X[ 6 > 2 &.#Xs.7.r l 1X      ",
"        =.k p r.M.{ k < < l B.Z.Z.B.B c z B B.Z.Z.B.B 9 w k { N.r.p k =.        ",
"          3.k e f n V { V N.C.A.s.s.m.M.n.b.s.s.d.a.M.V.V.n.n.f e l 4.          ",
"            3.c b n V N.B.M.b.s.u.u.s.a.a.s.u.y.y.t.b.M.n.n g b x 3.            ",
"              pX=.l y u f g 8.9.y.0.q.y.q.q.q.0.9.8.a p e y l =.pX              ",
"                5.z % $ r i a 7.9.0.q.0.0.0.0.9.8.a i r $ % [ 5.                ",
"                      % % % % % % % % % % % % % % % % % % %                     "
};
